# AST/ASF file generated using VICON BodyLanguage
# -----------------------------------------------
:version 1.10
:name VICON
:units
  mass 1.0
  length 0.45
  angle deg
:documentation
   .ast/.asf automatically generated from VICON data using
   VICON BodyBuilder and BodyLanguage model FoxedUp or BRILLIANT.MOD
:root
   order TX TY TZ RX RY RZ
   axis XYZ
   position 0 0 0  
   orientation 0 -0 0 
:bonedata
  begin
     id 1 
     name lhipjoint
     direction 0.432694 -0.693742 0.575759 
     length 2.19277 
     axis 0 -0 0  XYZ
  end
  begin
     id 2 
     name lfemur
     direction 0.34202 -0.939693 0  
     length 6.69022  
     axis 0 -0 20  XYZ
    dof rx ry rz
    limits (-160.0 20.0)
           (-70.0 70.0)
           (-60.0 70.0)
  end
  begin
     id 3 
     name ltibia
     direction 0.34202 -0.939693 0   
     length 6.50337   
     axis 0 -0 20   XYZ
    dof rx
    limits (-10.0 170.0)
  end
  begin
     id 4 
     name lfoot
     direction 0.158999 -0.435969 0.885805   
     length 2.70564   
     axis -90 -1.13533e-015 20   XYZ
    dof rx rz
    limits (-45.0 90.0)
           (-70.0 20.0)
  end
  begin
     id 5 
     name ltoes
     direction -0.00592919 0.00964381 0.999936   
     length 1.29929   
     axis -90 -1.13533e-015 20   XYZ
    dof rx
    limits (-90.0 20.0)
  end
  begin
     id 6 
     name rhipjoint
     direction -0.414359 -0.700339 0.581234   
     length 2.17212  
     axis 0 -0 0  XYZ 
  end
  begin
     id 7 
     name rfemur
     direction -0.34202 -0.939693 0   
     length 7.17659   
     axis 0 -0 -20   XYZ
    dof rx ry rz
    limits (-160.0 20.0)
           (-70.0 70.0)
           (-70.0 60.0)
  end
  begin
     id 8 
     name rtibia
     direction -0.34202 -0.939693 0   
     length 6.36669   
     axis 0 -0 -20   XYZ
    dof rx
    limits (-10.0 170.0)
 end
 begin
     id 9 
     name rfoot
     direction -0.137064 -0.37658 0.916188   
     length 2.22351  
     axis -90 1.13533e-015 -20   XYZ
    dof rx rz
    limits (-45.0 90.0)
           (-20.0 70.0)
  end
  begin
     id 10 
     name rtoes
     direction -0.000784077 -0.00289101 0.999996   
     length 1.09522   
     axis -90 1.13533e-015 -20   XYZ
    dof rx
    limits (-90.0 20.0)
  end
  begin
     id 11 
     name lowerback
     direction -0.0176242 0.984912 -0.172157   
     length 1.65301   
     axis 0 -0 0   XYZ
    dof rx ry rz
    limits (-20.0 45.0)
           (-30.0 30.0)
           (-30.0 30.0)
  end
  begin
     id 12 
     name upperback
     direction -0.00218128 0.998776 -0.0494072   
     length 1.67776   
     axis 0 -0 0   XYZ
    dof rx ry rz
    limits (-20.0 45.0)
           (-30.0 30.0)
           (-30.0 30.0)
  end
  begin
     id 13 
     name thorax
     direction 0.00544186 0.999658 0.0255711   
     length 1.72293   
     axis 0 -0 0   XYZ
    dof rx ry rz
    limits (-20.0 45.0)
           (-30.0 30.0)
           (-30.0 30.0)
  end
  begin
     id 14 
     name lowerneck
     direction -0.105325 0.983841 0.144785   
     length 2.14226   
     axis 0 -0 0   XYZ
    dof rx ry rz
    limits (-20.0 45.0)
           (-30.0 30.0)
           (-30.0 30.0)
  end
  begin
     id 15 
     name upperneck
     direction 0.0547957 0.988053 -0.144041   
     length 2.17508   
     axis 0 -0 0   XYZ
    dof rx ry rz
    limits (-20.0 45.0)
           (-30.0 30.0)
           (-30.0 30.0)
  end
  begin
     id 16
     name head
     direction 0.0247488 0.997534 -0.0656813  
     length 2.20048  
     axis 0 -0 0   XYZ
    dof rx ry rz
    limits (-20.0 45.0)
           (-30.0 30.0)
           (-30.0 30.0)
  end
  begin
     id 17 
     name lclavicle
     direction 0.820559 0.567247 -0.0701026  
     length 4.09615  
     axis 0 -0 0   XYZ
    dof ry rz
    limits (-20.0 10.0)
           (0.0 20.0)
  end
  begin
     id 18 
     name lhumerus
     direction 0.999977 -0.0067566 -9.96392e-005   
     length 4.59333   
     axis -180 -30 -90   XYZ
    dof rx ry rz
    limits (-60.0 90.0)
           (-90.0 90.0)
           (-90.0 90.0)
  end
  begin
     id 19
     name lradius
     direction 1 -4.48982e-011 -2.53425e-027   
     length 2.81151   
     axis -180 -30 -90   XYZ
    dof rx
    limits (-10.0 170.0)
  end
  begin
     id 20
     name lwrist
     direction 1 -4.48939e-011 -7.39254e-028   
     length 1.40576   
     axis 2.56395e-016 90 90   XYZ
    dof ry
    limits (-180.0 0.0)
 end
  begin
     id 21 
     name lhand
     direction 1 -4.48939e-011 -1.47851e-027   
     length 0.895651   
     axis 9.43423e-016 90 90   XYZ
    dof rx rz
    limits (-90.0 90.0)
           (-45.0 45.0)
  end
  begin
     id 22 
     name lfingers
     direction 1 -4.48978e-011 -2.95702e-027   
     length 0.722097   
     axis 1.88685e-015 90 90   XYZ
    dof rx
    limits (0.0 90.0)
  end
  begin
     id 23
     name lthumb
     direction 0.707107 -6.34931e-011 0.707107   
     length 1.03679   
     axis -90 45 -9.86935e-015   XYZ
    dof rx rz
    limits (-45.0 45.0)
           (-45.0 45.0)
  end
  begin
     id 24 
     name rclavicle
     direction -0.831414 0.553102 -0.0531864   
     length 4.24872  
     axis 0 -0 0   XYZ 
    dof ry rz
    limits (-10.0 20.0)
           (-20.0 0.0)
  end
  begin
     id 25 
     name rhumerus
     direction -0.999916 -0.000939607 0.0129331  
     length 4.74834   
     axis -180 30 90   XYZ
    dof rx ry rz
    limits (-90.0 60.0)
           (-90.0 90.0)
           (-90.0 90.0)
  end
  begin
     id 26 
     name rradius
     direction -1 -4.48956e-011 -1.31752e-027   
     length 2.79907   
     axis -180 30 90   XYZ
    dof rx
    limits (-10.0 170.0)
  end
  begin
     id 27 
     name rwrist
     direction -1 -4.4897e-011 -7.39254e-028   
     length 1.39954   
     axis 2.56395e-016 -90 -90   XYZ
    dof ry
    limits (-180.0 0.0)
  end
  begin
     id 28
     name rhand
     direction -0.999997 -0.00250697 0.000800838   
     length 0.953304   
     axis 9.43423e-016 -90 -90   XYZ
    dof rx rz
    limits (-90.0 90.0)
           (-45.0 45.0)
  end
  begin
     id 29
     name rfingers
     direction -1 -4.48954e-011 -2.95702e-027   
     length 0.763342   
     axis 1.88685e-015 -90 -90   XYZ
    dof rx
    limits (0.0 90.0)
  end
  begin
     id 30
     name rthumb
     direction -0.709701 -0.00217037 0.7045   
     length 1.10115   
     axis -90 -45 9.86935e-015   XYZ
    dof rx rz
    limits (-45.0 45.0)
           (-45.0 45.0)
  end
:hierarchy
  begin
    root lhipjoint rhipjoint lowerback
    lhipjoint lfemur
    lfemur ltibia
    ltibia lfoot
    lfoot ltoes
    rhipjoint rfemur
    rfemur rtibia
    rtibia rfoot
    rfoot rtoes
    lowerback upperback
    upperback thorax
    thorax lowerneck lclavicle rclavicle
    lowerneck upperneck
    upperneck head
    lclavicle lhumerus
    lhumerus lradius
    lradius lwrist
    lwrist lhand lthumb
    lhand lfingers
    rclavicle rhumerus
    rhumerus rradius
    rradius rwrist
    rwrist rhand rthumb
    rhand rfingers
  end

#!OML:ASF G:\ViconDB\ViconDB\414\test\team2\shane.ASF
:FULLY-SPECIFIED
:DEGREES
50
root 3.53239 17.0638 -18.2292 -6.97664 3.80097 -4.03653
lowerback 27.3687 -0.826848 2.98539
upperback 5.79624 0.0531072 2.54106
thorax -8.67519 -0.0109617 1.09377
lowerneck -22.9099 -4.33608 -6.92844
upperneck 2.87467 -4.79662 10.0768
head 4.9141 -1.73609 3.82091
rclavicle 4.77083e-015 -2.66371e-014
rhumerus 48.7687 -43.2664 -29.853
rradius 86.709
rwrist 20.6454
rhand -41.5252 -20.0464
rfingers 7.12502
rthumb -14.4377 -49.5242
lclavicle 4.77083e-015 -2.66371e-014
lhumerus 43.4963 41.0353 16.2981
lradius 71.7508
lwrist 1.93066
lhand -57.4845 19.0963
lfingers 7.12502
lthumb -29.754 46.7279
rfemur -3.8489 -21.5902 12.0229
rtibia 40.7846
rfoot -6.07174 -7.21638
rtoes -18.2542
lfemur -4.35337 19.4595 -1.54215
ltibia 38.2531
lfoot -11.4685 -32.7349
ltoes -18.0809
51
root 3.55374 17.4446 -18.095 -7.23751 3.93296 -4.48558
lowerback 26.119 -0.954212 3.50085
upperback 5.23306 -0.00959649 2.58098
thorax -8.67667 -0.054866 0.854044
lowerneck -21.3829 -4.12634 -6.69249
upperneck 4.58193 -4.73803 9.57361
head 5.19541 -1.75669 3.63311
rclavicle 1.28216e-014 -8.74653e-015
rhumerus 49.9114 -43.6522 -30.7119
rradius 84.1307
rwrist 21.2158
rhand -40.3906 -18.5571
rfingers 7.12502
rthumb -13.3443 -48.1098
lclavicle 1.28216e-014 -8.74653e-015
lhumerus 46.0028 42.4818 18.9244
lradius 69.4581
lwrist 4.49771
lhand -55.9242 15.898
lfingers 7.12502
lthumb -28.2638 43.786
rfemur -0.81927 -20.529 12.3522
rtibia 35.1937
rfoot -0.624857 -6.90248
rtoes -17.1793
lfemur -1.34624 19.6864 -0.450557
ltibia 32.7667
lfoot -3.78224 -34.0969
ltoes -18.3102
52
root 3.58107 17.8264 -17.9692 -7.37252 3.93893 -5.03137
lowerback 24.5525 -1.08308 4.09628
upperback 4.82618 -0.0778825 2.78058
thorax -8.32823 -0.0990285 0.739176
lowerneck -20.4425 -4.01253 -7.44542
upperneck 6.64004 -4.62137 9.84185
head 5.71699 -1.69743 3.86539
rclavicle 3.08116e-015 1.07344e-014
rhumerus 51.0953 -43.7357 -31.5067
rradius 82.3908
rwrist 20.0316
rhand -40.0165 -17.4966
rfingers 7.12502
rthumb -12.9836 -47.0726
lclavicle 3.08116e-015 1.07344e-014
lhumerus 47.7271 43.5069 21.0679
lradius 67.823
lwrist 8.35118
lhand -55.0172 15.9246
lfingers 7.12502
lthumb -27.3966 43.9529
rfemur 1.66569 -19.3469 12.8182
rtibia 29.889
rfoot 5.29354 -7.41529
rtoes -12.3946
lfemur 0.946199 18.8921 0.5183
ltibia 28.2776
lfoot 4.12089 -32.6567
ltoes -12.9844
53
root 3.61717 18.2191 -17.8441 -7.25373 3.80745 -5.51395
lowerback 22.7323 -1.1747 4.59675
upperback 4.35285 -0.152818 3.02717
thorax -7.9069 -0.143654 0.725882
lowerneck -19.9228 -3.75198 -7.72508
upperneck 9.27331 -4.38186 9.59432
head 6.45031 -1.59668 3.87605
rclavicle -9.74045e-015 -2.26615e-014
rhumerus 52.5851 -43.3806 -32.5686
rradius 80.0726
rwrist 18.9195
rhand -41.0804 -17.7459
rfingers 7.12502
rthumb -14.0091 -47.2538
lclavicle -9.74045e-015 -2.26615e-014
lhumerus 48.4188 43.9031 22.0029
lradius 66.1519
lwrist 12.6368
lhand -53.5404 24.7946
lfingers 7.12502
lthumb -25.9833 53.0383
rfemur 3.57524 -18.0546 13.2308
rtibia 25.323
rfoot 10.0259 -8.42928
rtoes -1.75123
lfemur 2.39286 16.9332 0.851547
ltibia 25.3249
lfoot 7.19099 -28.0307
ltoes 5.12658
54
root 3.65806 18.6483 -17.72 -6.95374 3.68749 -5.96547
lowerback 21.0518 -1.42566 5.32694
upperback 3.61416 -0.401117 3.04269
thorax -7.8406 -0.287735 0.381879
lowerneck -20.0374 -3.35318 -7.56006
upperneck 12.8496 -4.03473 9.07017
head 7.58187 -1.43692 3.75393
rclavicle -7.85199e-015 -2.8625e-014
rhumerus 53.4955 -42.2944 -33.2758
rradius 77.7052
rwrist 17.4232
rhand -37.2891 -19.7309
rfingers 7.12502
rthumb -10.3536 -49.456
lclavicle -7.85199e-015 -2.8625e-014
lhumerus 48.0813 43.5868 21.3277
lradius 64.2547
lwrist 16.5839
lhand -55.1038 20.2185
lfingers 7.12502
lthumb -27.4795 48.2337
rfemur 4.98719 -18.8737 13.241
rtibia 22.1617
rfoot 11.09 -5.59282
rtoes 6.45801
lfemur 3.15185 13.5254 0.330974
ltibia 23.9469
lfoot 1.04156 -19.1925
ltoes 8.50868
55
root 3.68831 19.0953 -17.6066 -6.44631 3.68778 -6.29782
lowerback 19.2569 -1.67252 5.55671
upperback 2.87889 -0.764281 3.26116
thorax -7.69401 -0.473232 0.56201
lowerneck -19.9254 -2.91733 -7.18018
upperneck 15.5806 -3.51574 7.99149
head 8.39416 -1.26412 3.42892
rclavicle 5.76476e-015 2.14687e-014
rhumerus 55.0349 -41.0473 -34.2286
rradius 74.679
rwrist 16.7422
rhand -37.2891 -19.7309
rfingers 7.12502
rthumb -10.3536 -49.456
lclavicle 5.76476e-015 2.14687e-014
lhumerus 46.8423 43.2102 19.8591
lradius 61.961
lwrist 18.889
lhand -54.9115 22.228
lfingers 7.12502
lthumb -27.2955 50.2722
rfemur 5.51121 -20.475 13.318
rtibia 20.7049
rfoot 5.62408 -0.141604
rtoes -8.19602
lfemur 3.46202 9.00922 -0.767496
ltibia 23.8247
lfoot -7.64501 -5.80567
ltoes -2.81178
